<?xml version="1.0" encoding="utf-8" standalone="no"?>
<!DOCTYPE svg PUBLIC "-//W3C//DTD SVG 1.1//EN"
  "http://www.w3.org/Graphics/SVG/1.1/DTD/svg11.dtd">
<!-- Created with matplotlib (http://matplotlib.org/) -->
<svg height="324.17625pt" version="1.1" viewBox="0 0 439.938125 324.17625" width="439.938125pt" xmlns="http://www.w3.org/2000/svg" xmlns:xlink="http://www.w3.org/1999/xlink">
 <defs>
  <style type="text/css">
*{stroke-linecap:butt;stroke-linejoin:round;}
  </style>
 </defs>
 <g id="figure_1">
  <g id="patch_1">
   <path d="M 0 324.17625 
L 439.938125 324.17625 
L 439.938125 0 
L 0 0 
z
" style="fill:#ffffff;"/>
  </g>
  <g id="axes_1">
   <g id="patch_2">
    <path d="M 46.128125 138.85 
L 436.438125 138.85 
L 436.438125 3.5 
L 46.128125 3.5 
z
" style="fill:#ffffff;"/>
   </g>
   <g id="patch_3">
    <path clip-path="url(#p18b142c6d1)" d="M 63.869489 138.85 
L 87.52464 138.85 
L 87.52464 50.641391 
L 63.869489 50.641391 
z
" style="fill:#c7e9b4;"/>
   </g>
   <g id="patch_4">
    <path clip-path="url(#p18b142c6d1)" d="M 87.52464 138.85 
L 111.179792 138.85 
L 111.179792 9.945238 
L 87.52464 9.945238 
z
" style="fill:#c7e9b4;"/>
   </g>
   <g id="patch_5">
    <path clip-path="url(#p18b142c6d1)" d="M 111.179792 138.85 
L 134.834943 138.85 
L 134.834943 45.337581 
L 111.179792 45.337581 
z
" style="fill:#c7e9b4;"/>
   </g>
   <g id="patch_6">
    <path clip-path="url(#p18b142c6d1)" d="M 134.834943 138.85 
L 158.490095 138.85 
L 158.490095 90.853546 
L 134.834943 90.853546 
z
" style="fill:#c7e9b4;"/>
   </g>
   <g id="patch_7">
    <path clip-path="url(#p18b142c6d1)" d="M 158.490095 138.85 
L 182.145246 138.85 
L 182.145246 118.925422 
L 158.490095 118.925422 
z
" style="fill:#c7e9b4;"/>
   </g>
   <g id="patch_8">
    <path clip-path="url(#p18b142c6d1)" d="M 182.145246 138.85 
L 205.800398 138.85 
L 205.800398 129.654041 
L 182.145246 129.654041 
z
" style="fill:#c7e9b4;"/>
   </g>
   <g id="patch_9">
    <path clip-path="url(#p18b142c6d1)" d="M 205.800398 138.85 
L 229.455549 138.85 
L 229.455549 133.768023 
L 205.800398 133.768023 
z
" style="fill:#c7e9b4;"/>
   </g>
   <g id="patch_10">
    <path clip-path="url(#p18b142c6d1)" d="M 229.455549 138.85 
L 253.110701 138.85 
L 253.110701 135.441848 
L 229.455549 135.441848 
z
" style="fill:#c7e9b4;"/>
   </g>
   <g id="patch_11">
    <path clip-path="url(#p18b142c6d1)" d="M 253.110701 138.85 
L 276.765852 138.85 
L 276.765852 136.651843 
L 253.110701 136.651843 
z
" style="fill:#c7e9b4;"/>
   </g>
   <g id="patch_12">
    <path clip-path="url(#p18b142c6d1)" d="M 276.765852 138.85 
L 300.421004 138.85 
L 300.421004 137.035008 
L 276.765852 137.035008 
z
" style="fill:#c7e9b4;"/>
   </g>
   <g id="patch_13">
    <path clip-path="url(#p18b142c6d1)" d="M 300.421004 138.85 
L 324.076155 138.85 
L 324.076155 137.619839 
L 300.421004 137.619839 
z
" style="fill:#c7e9b4;"/>
   </g>
   <g id="patch_14">
    <path clip-path="url(#p18b142c6d1)" d="M 324.076155 138.85 
L 347.731307 138.85 
L 347.731307 138.466835 
L 324.076155 138.466835 
z
" style="fill:#c7e9b4;"/>
   </g>
   <g id="patch_15">
    <path clip-path="url(#p18b142c6d1)" d="M 347.731307 138.85 
L 371.386458 138.85 
L 371.386458 138.466835 
L 347.731307 138.466835 
z
" style="fill:#c7e9b4;"/>
   </g>
   <g id="patch_16">
    <path clip-path="url(#p18b142c6d1)" d="M 371.386458 138.85 
L 395.04161 138.85 
L 395.04161 138.608001 
L 371.386458 138.608001 
z
" style="fill:#c7e9b4;"/>
   </g>
   <g id="patch_17">
    <path clip-path="url(#p18b142c6d1)" d="M 395.04161 138.85 
L 418.696761 138.85 
L 418.696761 138.749167 
L 395.04161 138.749167 
z
" style="fill:#c7e9b4;"/>
   </g>
   <g id="matplotlib.axis_1">
    <g id="xtick_1">
     <g id="line2d_1">
      <defs>
       <path d="M 0 0 
L 0 3.5 
" id="m5466b82775" style="stroke:#000000;stroke-width:0.8;"/>
      </defs>
      <g>
       <use style="stroke:#000000;stroke-width:0.8;" x="63.25208" xlink:href="#m5466b82775" y="138.85"/>
      </g>
     </g>
    </g>
    <g id="xtick_2">
     <g id="line2d_2">
      <g>
       <use style="stroke:#000000;stroke-width:0.8;" x="110.232234" xlink:href="#m5466b82775" y="138.85"/>
      </g>
     </g>
    </g>
    <g id="xtick_3">
     <g id="line2d_3">
      <g>
       <use style="stroke:#000000;stroke-width:0.8;" x="157.212388" xlink:href="#m5466b82775" y="138.85"/>
      </g>
     </g>
    </g>
    <g id="xtick_4">
     <g id="line2d_4">
      <g>
       <use style="stroke:#000000;stroke-width:0.8;" x="204.192542" xlink:href="#m5466b82775" y="138.85"/>
      </g>
     </g>
    </g>
    <g id="xtick_5">
     <g id="line2d_5">
      <g>
       <use style="stroke:#000000;stroke-width:0.8;" x="251.172696" xlink:href="#m5466b82775" y="138.85"/>
      </g>
     </g>
    </g>
    <g id="xtick_6">
     <g id="line2d_6">
      <g>
       <use style="stroke:#000000;stroke-width:0.8;" x="298.15285" xlink:href="#m5466b82775" y="138.85"/>
      </g>
     </g>
    </g>
    <g id="xtick_7">
     <g id="line2d_7">
      <g>
       <use style="stroke:#000000;stroke-width:0.8;" x="345.133004" xlink:href="#m5466b82775" y="138.85"/>
      </g>
     </g>
    </g>
    <g id="xtick_8">
     <g id="line2d_8">
      <g>
       <use style="stroke:#000000;stroke-width:0.8;" x="392.113158" xlink:href="#m5466b82775" y="138.85"/>
      </g>
     </g>
    </g>
   </g>
   <g id="matplotlib.axis_2">
    <g id="ytick_1">
     <g id="line2d_9">
      <defs>
       <path d="M 0 0 
L -3.5 0 
" id="m7eda8c2fb0" style="stroke:#000000;stroke-width:0.8;"/>
      </defs>
      <g>
       <use style="stroke:#000000;stroke-width:0.8;" x="46.128125" xlink:href="#m7eda8c2fb0" y="138.85"/>
      </g>
     </g>
     <g id="text_1">
      <!-- 0 -->
      <defs>
       <path d="M 31.78125 66.40625 
Q 24.171875 66.40625 20.328125 58.90625 
Q 16.5 51.421875 16.5 36.375 
Q 16.5 21.390625 20.328125 13.890625 
Q 24.171875 6.390625 31.78125 6.390625 
Q 39.453125 6.390625 43.28125 13.890625 
Q 47.125 21.390625 47.125 36.375 
Q 47.125 51.421875 43.28125 58.90625 
Q 39.453125 66.40625 31.78125 66.40625 
z
M 31.78125 74.21875 
Q 44.046875 74.21875 50.515625 64.515625 
Q 56.984375 54.828125 56.984375 36.375 
Q 56.984375 17.96875 50.515625 8.265625 
Q 44.046875 -1.421875 31.78125 -1.421875 
Q 19.53125 -1.421875 13.0625 8.265625 
Q 6.59375 17.96875 6.59375 36.375 
Q 6.59375 54.828125 13.0625 64.515625 
Q 19.53125 74.21875 31.78125 74.21875 
z
" id="DejaVuSans-30"/>
      </defs>
      <g transform="translate(32.765625 142.649219)scale(0.1 -0.1)">
       <use xlink:href="#DejaVuSans-30"/>
      </g>
     </g>
    </g>
    <g id="ytick_2">
     <g id="line2d_10">
      <g>
       <use style="stroke:#000000;stroke-width:0.8;" x="46.128125" xlink:href="#m7eda8c2fb0" y="98.516845"/>
      </g>
     </g>
     <g id="text_2">
      <!-- 2000 -->
      <defs>
       <path d="M 19.1875 8.296875 
L 53.609375 8.296875 
L 53.609375 0 
L 7.328125 0 
L 7.328125 8.296875 
Q 12.9375 14.109375 22.625 23.890625 
Q 32.328125 33.6875 34.8125 36.53125 
Q 39.546875 41.84375 41.421875 45.53125 
Q 43.3125 49.21875 43.3125 52.78125 
Q 43.3125 58.59375 39.234375 62.25 
Q 35.15625 65.921875 28.609375 65.921875 
Q 23.96875 65.921875 18.8125 64.3125 
Q 13.671875 62.703125 7.8125 59.421875 
L 7.8125 69.390625 
Q 13.765625 71.78125 18.9375 73 
Q 24.125 74.21875 28.421875 74.21875 
Q 39.75 74.21875 46.484375 68.546875 
Q 53.21875 62.890625 53.21875 53.421875 
Q 53.21875 48.921875 51.53125 44.890625 
Q 49.859375 40.875 45.40625 35.40625 
Q 44.1875 33.984375 37.640625 27.21875 
Q 31.109375 20.453125 19.1875 8.296875 
z
" id="DejaVuSans-32"/>
      </defs>
      <g transform="translate(13.678125 102.316064)scale(0.1 -0.1)">
       <use xlink:href="#DejaVuSans-32"/>
       <use x="63.623047" xlink:href="#DejaVuSans-30"/>
       <use x="127.246094" xlink:href="#DejaVuSans-30"/>
       <use x="190.869141" xlink:href="#DejaVuSans-30"/>
      </g>
     </g>
    </g>
    <g id="ytick_3">
     <g id="line2d_11">
      <g>
       <use style="stroke:#000000;stroke-width:0.8;" x="46.128125" xlink:href="#m7eda8c2fb0" y="58.183691"/>
      </g>
     </g>
     <g id="text_3">
      <!-- 4000 -->
      <defs>
       <path d="M 37.796875 64.3125 
L 12.890625 25.390625 
L 37.796875 25.390625 
z
M 35.203125 72.90625 
L 47.609375 72.90625 
L 47.609375 25.390625 
L 58.015625 25.390625 
L 58.015625 17.1875 
L 47.609375 17.1875 
L 47.609375 0 
L 37.796875 0 
L 37.796875 17.1875 
L 4.890625 17.1875 
L 4.890625 26.703125 
z
" id="DejaVuSans-34"/>
      </defs>
      <g transform="translate(13.678125 61.98291)scale(0.1 -0.1)">
       <use xlink:href="#DejaVuSans-34"/>
       <use x="63.623047" xlink:href="#DejaVuSans-30"/>
       <use x="127.246094" xlink:href="#DejaVuSans-30"/>
       <use x="190.869141" xlink:href="#DejaVuSans-30"/>
      </g>
     </g>
    </g>
    <g id="ytick_4">
     <g id="line2d_12">
      <g>
       <use style="stroke:#000000;stroke-width:0.8;" x="46.128125" xlink:href="#m7eda8c2fb0" y="17.850536"/>
      </g>
     </g>
     <g id="text_4">
      <!-- 6000 -->
      <defs>
       <path d="M 33.015625 40.375 
Q 26.375 40.375 22.484375 35.828125 
Q 18.609375 31.296875 18.609375 23.390625 
Q 18.609375 15.53125 22.484375 10.953125 
Q 26.375 6.390625 33.015625 6.390625 
Q 39.65625 6.390625 43.53125 10.953125 
Q 47.40625 15.53125 47.40625 23.390625 
Q 47.40625 31.296875 43.53125 35.828125 
Q 39.65625 40.375 33.015625 40.375 
z
M 52.59375 71.296875 
L 52.59375 62.3125 
Q 48.875 64.0625 45.09375 64.984375 
Q 41.3125 65.921875 37.59375 65.921875 
Q 27.828125 65.921875 22.671875 59.328125 
Q 17.53125 52.734375 16.796875 39.40625 
Q 19.671875 43.65625 24.015625 45.921875 
Q 28.375 48.1875 33.59375 48.1875 
Q 44.578125 48.1875 50.953125 41.515625 
Q 57.328125 34.859375 57.328125 23.390625 
Q 57.328125 12.15625 50.6875 5.359375 
Q 44.046875 -1.421875 33.015625 -1.421875 
Q 20.359375 -1.421875 13.671875 8.265625 
Q 6.984375 17.96875 6.984375 36.375 
Q 6.984375 53.65625 15.1875 63.9375 
Q 23.390625 74.21875 37.203125 74.21875 
Q 40.921875 74.21875 44.703125 73.484375 
Q 48.484375 72.75 52.59375 71.296875 
z
" id="DejaVuSans-36"/>
      </defs>
      <g transform="translate(13.678125 21.649755)scale(0.1 -0.1)">
       <use xlink:href="#DejaVuSans-36"/>
       <use x="63.623047" xlink:href="#DejaVuSans-30"/>
       <use x="127.246094" xlink:href="#DejaVuSans-30"/>
       <use x="190.869141" xlink:href="#DejaVuSans-30"/>
      </g>
     </g>
    </g>
    <g id="text_5">
     <!-- Normal sample count -->
     <defs>
      <path d="M 9.8125 72.90625 
L 23.09375 72.90625 
L 55.421875 11.921875 
L 55.421875 72.90625 
L 64.984375 72.90625 
L 64.984375 0 
L 51.703125 0 
L 19.390625 60.984375 
L 19.390625 0 
L 9.8125 0 
z
" id="DejaVuSans-4e"/>
      <path d="M 30.609375 48.390625 
Q 23.390625 48.390625 19.1875 42.75 
Q 14.984375 37.109375 14.984375 27.296875 
Q 14.984375 17.484375 19.15625 11.84375 
Q 23.34375 6.203125 30.609375 6.203125 
Q 37.796875 6.203125 41.984375 11.859375 
Q 46.1875 17.53125 46.1875 27.296875 
Q 46.1875 37.015625 41.984375 42.703125 
Q 37.796875 48.390625 30.609375 48.390625 
z
M 30.609375 56 
Q 42.328125 56 49.015625 48.375 
Q 55.71875 40.765625 55.71875 27.296875 
Q 55.71875 13.875 49.015625 6.21875 
Q 42.328125 -1.421875 30.609375 -1.421875 
Q 18.84375 -1.421875 12.171875 6.21875 
Q 5.515625 13.875 5.515625 27.296875 
Q 5.515625 40.765625 12.171875 48.375 
Q 18.84375 56 30.609375 56 
z
" id="DejaVuSans-6f"/>
      <path d="M 41.109375 46.296875 
Q 39.59375 47.171875 37.8125 47.578125 
Q 36.03125 48 33.890625 48 
Q 26.265625 48 22.1875 43.046875 
Q 18.109375 38.09375 18.109375 28.8125 
L 18.109375 0 
L 9.078125 0 
L 9.078125 54.6875 
L 18.109375 54.6875 
L 18.109375 46.1875 
Q 20.953125 51.171875 25.484375 53.578125 
Q 30.03125 56 36.53125 56 
Q 37.453125 56 38.578125 55.875 
Q 39.703125 55.765625 41.0625 55.515625 
z
" id="DejaVuSans-72"/>
      <path d="M 52 44.1875 
Q 55.375 50.25 60.0625 53.125 
Q 64.75 56 71.09375 56 
Q 79.640625 56 84.28125 50.015625 
Q 88.921875 44.046875 88.921875 33.015625 
L 88.921875 0 
L 79.890625 0 
L 79.890625 32.71875 
Q 79.890625 40.578125 77.09375 44.375 
Q 74.3125 48.1875 68.609375 48.1875 
Q 61.625 48.1875 57.5625 43.546875 
Q 53.515625 38.921875 53.515625 30.90625 
L 53.515625 0 
L 44.484375 0 
L 44.484375 32.71875 
Q 44.484375 40.625 41.703125 44.40625 
Q 38.921875 48.1875 33.109375 48.1875 
Q 26.21875 48.1875 22.15625 43.53125 
Q 18.109375 38.875 18.109375 30.90625 
L 18.109375 0 
L 9.078125 0 
L 9.078125 54.6875 
L 18.109375 54.6875 
L 18.109375 46.1875 
Q 21.1875 51.21875 25.484375 53.609375 
Q 29.78125 56 35.6875 56 
Q 41.65625 56 45.828125 52.96875 
Q 50 49.953125 52 44.1875 
z
" id="DejaVuSans-6d"/>
      <path d="M 34.28125 27.484375 
Q 23.390625 27.484375 19.1875 25 
Q 14.984375 22.515625 14.984375 16.5 
Q 14.984375 11.71875 18.140625 8.90625 
Q 21.296875 6.109375 26.703125 6.109375 
Q 34.1875 6.109375 38.703125 11.40625 
Q 43.21875 16.703125 43.21875 25.484375 
L 43.21875 27.484375 
z
M 52.203125 31.203125 
L 52.203125 0 
L 43.21875 0 
L 43.21875 8.296875 
Q 40.140625 3.328125 35.546875 0.953125 
Q 30.953125 -1.421875 24.3125 -1.421875 
Q 15.921875 -1.421875 10.953125 3.296875 
Q 6 8.015625 6 15.921875 
Q 6 25.140625 12.171875 29.828125 
Q 18.359375 34.515625 30.609375 34.515625 
L 43.21875 34.515625 
L 43.21875 35.40625 
Q 43.21875 41.609375 39.140625 45 
Q 35.0625 48.390625 27.6875 48.390625 
Q 23 48.390625 18.546875 47.265625 
Q 14.109375 46.140625 10.015625 43.890625 
L 10.015625 52.203125 
Q 14.9375 54.109375 19.578125 55.046875 
Q 24.21875 56 28.609375 56 
Q 40.484375 56 46.34375 49.84375 
Q 52.203125 43.703125 52.203125 31.203125 
z
" id="DejaVuSans-61"/>
      <path d="M 9.421875 75.984375 
L 18.40625 75.984375 
L 18.40625 0 
L 9.421875 0 
z
" id="DejaVuSans-6c"/>
      <path id="DejaVuSans-20"/>
      <path d="M 44.28125 53.078125 
L 44.28125 44.578125 
Q 40.484375 46.53125 36.375 47.5 
Q 32.28125 48.484375 27.875 48.484375 
Q 21.1875 48.484375 17.84375 46.4375 
Q 14.5 44.390625 14.5 40.28125 
Q 14.5 37.15625 16.890625 35.375 
Q 19.28125 33.59375 26.515625 31.984375 
L 29.59375 31.296875 
Q 39.15625 29.25 43.1875 25.515625 
Q 47.21875 21.78125 47.21875 15.09375 
Q 47.21875 7.46875 41.1875 3.015625 
Q 35.15625 -1.421875 24.609375 -1.421875 
Q 20.21875 -1.421875 15.453125 -0.5625 
Q 10.6875 0.296875 5.421875 2 
L 5.421875 11.28125 
Q 10.40625 8.6875 15.234375 7.390625 
Q 20.0625 6.109375 24.8125 6.109375 
Q 31.15625 6.109375 34.5625 8.28125 
Q 37.984375 10.453125 37.984375 14.40625 
Q 37.984375 18.0625 35.515625 20.015625 
Q 33.0625 21.96875 24.703125 23.78125 
L 21.578125 24.515625 
Q 13.234375 26.265625 9.515625 29.90625 
Q 5.8125 33.546875 5.8125 39.890625 
Q 5.8125 47.609375 11.28125 51.796875 
Q 16.75 56 26.8125 56 
Q 31.78125 56 36.171875 55.265625 
Q 40.578125 54.546875 44.28125 53.078125 
z
" id="DejaVuSans-73"/>
      <path d="M 18.109375 8.203125 
L 18.109375 -20.796875 
L 9.078125 -20.796875 
L 9.078125 54.6875 
L 18.109375 54.6875 
L 18.109375 46.390625 
Q 20.953125 51.265625 25.265625 53.625 
Q 29.59375 56 35.59375 56 
Q 45.5625 56 51.78125 48.09375 
Q 58.015625 40.1875 58.015625 27.296875 
Q 58.015625 14.40625 51.78125 6.484375 
Q 45.5625 -1.421875 35.59375 -1.421875 
Q 29.59375 -1.421875 25.265625 0.953125 
Q 20.953125 3.328125 18.109375 8.203125 
z
M 48.6875 27.296875 
Q 48.6875 37.203125 44.609375 42.84375 
Q 40.53125 48.484375 33.40625 48.484375 
Q 26.265625 48.484375 22.1875 42.84375 
Q 18.109375 37.203125 18.109375 27.296875 
Q 18.109375 17.390625 22.1875 11.75 
Q 26.265625 6.109375 33.40625 6.109375 
Q 40.53125 6.109375 44.609375 11.75 
Q 48.6875 17.390625 48.6875 27.296875 
z
" id="DejaVuSans-70"/>
      <path d="M 56.203125 29.59375 
L 56.203125 25.203125 
L 14.890625 25.203125 
Q 15.484375 15.921875 20.484375 11.0625 
Q 25.484375 6.203125 34.421875 6.203125 
Q 39.59375 6.203125 44.453125 7.46875 
Q 49.3125 8.734375 54.109375 11.28125 
L 54.109375 2.78125 
Q 49.265625 0.734375 44.1875 -0.34375 
Q 39.109375 -1.421875 33.890625 -1.421875 
Q 20.796875 -1.421875 13.15625 6.1875 
Q 5.515625 13.8125 5.515625 26.8125 
Q 5.515625 40.234375 12.765625 48.109375 
Q 20.015625 56 32.328125 56 
Q 43.359375 56 49.78125 48.890625 
Q 56.203125 41.796875 56.203125 29.59375 
z
M 47.21875 32.234375 
Q 47.125 39.59375 43.09375 43.984375 
Q 39.0625 48.390625 32.421875 48.390625 
Q 24.90625 48.390625 20.390625 44.140625 
Q 15.875 39.890625 15.1875 32.171875 
z
" id="DejaVuSans-65"/>
      <path d="M 48.78125 52.59375 
L 48.78125 44.1875 
Q 44.96875 46.296875 41.140625 47.34375 
Q 37.3125 48.390625 33.40625 48.390625 
Q 24.65625 48.390625 19.8125 42.84375 
Q 14.984375 37.3125 14.984375 27.296875 
Q 14.984375 17.28125 19.8125 11.734375 
Q 24.65625 6.203125 33.40625 6.203125 
Q 37.3125 6.203125 41.140625 7.25 
Q 44.96875 8.296875 48.78125 10.40625 
L 48.78125 2.09375 
Q 45.015625 0.34375 40.984375 -0.53125 
Q 36.96875 -1.421875 32.421875 -1.421875 
Q 20.0625 -1.421875 12.78125 6.34375 
Q 5.515625 14.109375 5.515625 27.296875 
Q 5.515625 40.671875 12.859375 48.328125 
Q 20.21875 56 33.015625 56 
Q 37.15625 56 41.109375 55.140625 
Q 45.0625 54.296875 48.78125 52.59375 
z
" id="DejaVuSans-63"/>
      <path d="M 8.5 21.578125 
L 8.5 54.6875 
L 17.484375 54.6875 
L 17.484375 21.921875 
Q 17.484375 14.15625 20.5 10.265625 
Q 23.53125 6.390625 29.59375 6.390625 
Q 36.859375 6.390625 41.078125 11.03125 
Q 45.3125 15.671875 45.3125 23.6875 
L 45.3125 54.6875 
L 54.296875 54.6875 
L 54.296875 0 
L 45.3125 0 
L 45.3125 8.40625 
Q 42.046875 3.421875 37.71875 1 
Q 33.40625 -1.421875 27.6875 -1.421875 
Q 18.265625 -1.421875 13.375 4.4375 
Q 8.5 10.296875 8.5 21.578125 
z
M 31.109375 56 
z
" id="DejaVuSans-75"/>
      <path d="M 54.890625 33.015625 
L 54.890625 0 
L 45.90625 0 
L 45.90625 32.71875 
Q 45.90625 40.484375 42.875 44.328125 
Q 39.84375 48.1875 33.796875 48.1875 
Q 26.515625 48.1875 22.3125 43.546875 
Q 18.109375 38.921875 18.109375 30.90625 
L 18.109375 0 
L 9.078125 0 
L 9.078125 54.6875 
L 18.109375 54.6875 
L 18.109375 46.1875 
Q 21.34375 51.125 25.703125 53.5625 
Q 30.078125 56 35.796875 56 
Q 45.21875 56 50.046875 50.171875 
Q 54.890625 44.34375 54.890625 33.015625 
z
" id="DejaVuSans-6e"/>
      <path d="M 18.3125 70.21875 
L 18.3125 54.6875 
L 36.8125 54.6875 
L 36.8125 47.703125 
L 18.3125 47.703125 
L 18.3125 18.015625 
Q 18.3125 11.328125 20.140625 9.421875 
Q 21.96875 7.515625 27.59375 7.515625 
L 36.8125 7.515625 
L 36.8125 0 
L 27.59375 0 
Q 17.1875 0 13.234375 3.875 
Q 9.28125 7.765625 9.28125 18.015625 
L 9.28125 47.703125 
L 2.6875 47.703125 
L 2.6875 54.6875 
L 9.28125 54.6875 
L 9.28125 70.21875 
z
" id="DejaVuSans-74"/>
     </defs>
     <g transform="translate(7.598438 124.816406)rotate(-90)scale(0.1 -0.1)">
      <use xlink:href="#DejaVuSans-4e"/>
      <use x="74.804688" xlink:href="#DejaVuSans-6f"/>
      <use x="135.986328" xlink:href="#DejaVuSans-72"/>
      <use x="177.083984" xlink:href="#DejaVuSans-6d"/>
      <use x="274.496094" xlink:href="#DejaVuSans-61"/>
      <use x="335.775391" xlink:href="#DejaVuSans-6c"/>
      <use x="363.558594" xlink:href="#DejaVuSans-20"/>
      <use x="395.345703" xlink:href="#DejaVuSans-73"/>
      <use x="447.445312" xlink:href="#DejaVuSans-61"/>
      <use x="508.724609" xlink:href="#DejaVuSans-6d"/>
      <use x="606.136719" xlink:href="#DejaVuSans-70"/>
      <use x="669.613281" xlink:href="#DejaVuSans-6c"/>
      <use x="697.396484" xlink:href="#DejaVuSans-65"/>
      <use x="758.919922" xlink:href="#DejaVuSans-20"/>
      <use x="790.707031" xlink:href="#DejaVuSans-63"/>
      <use x="845.6875" xlink:href="#DejaVuSans-6f"/>
      <use x="906.869141" xlink:href="#DejaVuSans-75"/>
      <use x="970.248047" xlink:href="#DejaVuSans-6e"/>
      <use x="1033.626953" xlink:href="#DejaVuSans-74"/>
     </g>
    </g>
   </g>
   <g id="line2d_13">
    <path clip-path="url(#p18b142c6d1)" d="M 241.776665 138.85 
L 241.776665 9.945238 
" style="fill:none;stroke:#808080;stroke-dasharray:5.55,2.4;stroke-dashoffset:0;stroke-width:1.5;"/>
   </g>
   <g id="patch_18">
    <path d="M 46.128125 138.85 
L 46.128125 3.5 
" style="fill:none;stroke:#000000;stroke-linecap:square;stroke-linejoin:miter;stroke-width:0.8;"/>
   </g>
   <g id="patch_19">
    <path d="M 436.438125 138.85 
L 436.438125 3.5 
" style="fill:none;stroke:#000000;stroke-linecap:square;stroke-linejoin:miter;stroke-width:0.8;"/>
   </g>
   <g id="patch_20">
    <path d="M 46.128125 138.85 
L 436.438125 138.85 
" style="fill:none;stroke:#000000;stroke-linecap:square;stroke-linejoin:miter;stroke-width:0.8;"/>
   </g>
   <g id="patch_21">
    <path d="M 46.128125 3.5 
L 436.438125 3.5 
" style="fill:none;stroke:#000000;stroke-linecap:square;stroke-linejoin:miter;stroke-width:0.8;"/>
   </g>
   <g id="text_6">
    <!-- N 20000, 200 trees -->
    <defs>
     <path d="M 11.71875 12.40625 
L 22.015625 12.40625 
L 22.015625 4 
L 14.015625 -11.625 
L 7.71875 -11.625 
L 11.71875 4 
z
" id="DejaVuSans-2c"/>
    </defs>
    <g transform="translate(318.739211 29.280952)scale(0.1 -0.1)">
     <use xlink:href="#DejaVuSans-4e"/>
     <use x="74.804688" xlink:href="#DejaVuSans-20"/>
     <use x="106.591797" xlink:href="#DejaVuSans-32"/>
     <use x="170.214844" xlink:href="#DejaVuSans-30"/>
     <use x="233.837891" xlink:href="#DejaVuSans-30"/>
     <use x="297.460938" xlink:href="#DejaVuSans-30"/>
     <use x="361.083984" xlink:href="#DejaVuSans-30"/>
     <use x="424.707031" xlink:href="#DejaVuSans-2c"/>
     <use x="456.494141" xlink:href="#DejaVuSans-20"/>
     <use x="488.28125" xlink:href="#DejaVuSans-32"/>
     <use x="551.904297" xlink:href="#DejaVuSans-30"/>
     <use x="615.527344" xlink:href="#DejaVuSans-30"/>
     <use x="679.150391" xlink:href="#DejaVuSans-20"/>
     <use x="710.9375" xlink:href="#DejaVuSans-74"/>
     <use x="750.146484" xlink:href="#DejaVuSans-72"/>
     <use x="791.228516" xlink:href="#DejaVuSans-65"/>
     <use x="852.751953" xlink:href="#DejaVuSans-65"/>
     <use x="914.275391" xlink:href="#DejaVuSans-73"/>
    </g>
   </g>
   <g id="text_7">
    <!-- F1 score 0.1327, avg PR 0.2360 -->
    <defs>
     <path d="M 9.8125 72.90625 
L 51.703125 72.90625 
L 51.703125 64.59375 
L 19.671875 64.59375 
L 19.671875 43.109375 
L 48.578125 43.109375 
L 48.578125 34.8125 
L 19.671875 34.8125 
L 19.671875 0 
L 9.8125 0 
z
" id="DejaVuSans-46"/>
     <path d="M 12.40625 8.296875 
L 28.515625 8.296875 
L 28.515625 63.921875 
L 10.984375 60.40625 
L 10.984375 69.390625 
L 28.421875 72.90625 
L 38.28125 72.90625 
L 38.28125 8.296875 
L 54.390625 8.296875 
L 54.390625 0 
L 12.40625 0 
z
" id="DejaVuSans-31"/>
     <path d="M 10.6875 12.40625 
L 21 12.40625 
L 21 0 
L 10.6875 0 
z
" id="DejaVuSans-2e"/>
     <path d="M 40.578125 39.3125 
Q 47.65625 37.796875 51.625 33 
Q 55.609375 28.21875 55.609375 21.1875 
Q 55.609375 10.40625 48.1875 4.484375 
Q 40.765625 -1.421875 27.09375 -1.421875 
Q 22.515625 -1.421875 17.65625 -0.515625 
Q 12.796875 0.390625 7.625 2.203125 
L 7.625 11.71875 
Q 11.71875 9.328125 16.59375 8.109375 
Q 21.484375 6.890625 26.8125 6.890625 
Q 36.078125 6.890625 40.9375 10.546875 
Q 45.796875 14.203125 45.796875 21.1875 
Q 45.796875 27.640625 41.28125 31.265625 
Q 36.765625 34.90625 28.71875 34.90625 
L 20.21875 34.90625 
L 20.21875 43.015625 
L 29.109375 43.015625 
Q 36.375 43.015625 40.234375 45.921875 
Q 44.09375 48.828125 44.09375 54.296875 
Q 44.09375 59.90625 40.109375 62.90625 
Q 36.140625 65.921875 28.71875 65.921875 
Q 24.65625 65.921875 20.015625 65.03125 
Q 15.375 64.15625 9.8125 62.3125 
L 9.8125 71.09375 
Q 15.4375 72.65625 20.34375 73.4375 
Q 25.25 74.21875 29.59375 74.21875 
Q 40.828125 74.21875 47.359375 69.109375 
Q 53.90625 64.015625 53.90625 55.328125 
Q 53.90625 49.265625 50.4375 45.09375 
Q 46.96875 40.921875 40.578125 39.3125 
z
" id="DejaVuSans-33"/>
     <path d="M 8.203125 72.90625 
L 55.078125 72.90625 
L 55.078125 68.703125 
L 28.609375 0 
L 18.3125 0 
L 43.21875 64.59375 
L 8.203125 64.59375 
z
" id="DejaVuSans-37"/>
     <path d="M 2.984375 54.6875 
L 12.5 54.6875 
L 29.59375 8.796875 
L 46.6875 54.6875 
L 56.203125 54.6875 
L 35.6875 0 
L 23.484375 0 
z
" id="DejaVuSans-76"/>
     <path d="M 45.40625 27.984375 
Q 45.40625 37.75 41.375 43.109375 
Q 37.359375 48.484375 30.078125 48.484375 
Q 22.859375 48.484375 18.828125 43.109375 
Q 14.796875 37.75 14.796875 27.984375 
Q 14.796875 18.265625 18.828125 12.890625 
Q 22.859375 7.515625 30.078125 7.515625 
Q 37.359375 7.515625 41.375 12.890625 
Q 45.40625 18.265625 45.40625 27.984375 
z
M 54.390625 6.78125 
Q 54.390625 -7.171875 48.1875 -13.984375 
Q 42 -20.796875 29.203125 -20.796875 
Q 24.46875 -20.796875 20.265625 -20.09375 
Q 16.0625 -19.390625 12.109375 -17.921875 
L 12.109375 -9.1875 
Q 16.0625 -11.328125 19.921875 -12.34375 
Q 23.78125 -13.375 27.78125 -13.375 
Q 36.625 -13.375 41.015625 -8.765625 
Q 45.40625 -4.15625 45.40625 5.171875 
L 45.40625 9.625 
Q 42.625 4.78125 38.28125 2.390625 
Q 33.9375 0 27.875 0 
Q 17.828125 0 11.671875 7.65625 
Q 5.515625 15.328125 5.515625 27.984375 
Q 5.515625 40.671875 11.671875 48.328125 
Q 17.828125 56 27.875 56 
Q 33.9375 56 38.28125 53.609375 
Q 42.625 51.21875 45.40625 46.390625 
L 45.40625 54.6875 
L 54.390625 54.6875 
z
" id="DejaVuSans-67"/>
     <path d="M 19.671875 64.796875 
L 19.671875 37.40625 
L 32.078125 37.40625 
Q 38.96875 37.40625 42.71875 40.96875 
Q 46.484375 44.53125 46.484375 51.125 
Q 46.484375 57.671875 42.71875 61.234375 
Q 38.96875 64.796875 32.078125 64.796875 
z
M 9.8125 72.90625 
L 32.078125 72.90625 
Q 44.34375 72.90625 50.609375 67.359375 
Q 56.890625 61.8125 56.890625 51.125 
Q 56.890625 40.328125 50.609375 34.8125 
Q 44.34375 29.296875 32.078125 29.296875 
L 19.671875 29.296875 
L 19.671875 0 
L 9.8125 0 
z
" id="DejaVuSans-50"/>
     <path d="M 44.390625 34.1875 
Q 47.5625 33.109375 50.5625 29.59375 
Q 53.5625 26.078125 56.59375 19.921875 
L 66.609375 0 
L 56 0 
L 46.6875 18.703125 
Q 43.0625 26.03125 39.671875 28.421875 
Q 36.28125 30.8125 30.421875 30.8125 
L 19.671875 30.8125 
L 19.671875 0 
L 9.8125 0 
L 9.8125 72.90625 
L 32.078125 72.90625 
Q 44.578125 72.90625 50.734375 67.671875 
Q 56.890625 62.453125 56.890625 51.90625 
Q 56.890625 45.015625 53.6875 40.46875 
Q 50.484375 35.9375 44.390625 34.1875 
z
M 19.671875 64.796875 
L 19.671875 38.921875 
L 32.078125 38.921875 
Q 39.203125 38.921875 42.84375 42.21875 
Q 46.484375 45.515625 46.484375 51.90625 
Q 46.484375 58.296875 42.84375 61.546875 
Q 39.203125 64.796875 32.078125 64.796875 
z
" id="DejaVuSans-52"/>
    </defs>
    <g transform="translate(255.751711 42.171429)scale(0.1 -0.1)">
     <use xlink:href="#DejaVuSans-46"/>
     <use x="57.519531" xlink:href="#DejaVuSans-31"/>
     <use x="121.142578" xlink:href="#DejaVuSans-20"/>
     <use x="152.929688" xlink:href="#DejaVuSans-73"/>
     <use x="205.029297" xlink:href="#DejaVuSans-63"/>
     <use x="260.009766" xlink:href="#DejaVuSans-6f"/>
     <use x="321.191406" xlink:href="#DejaVuSans-72"/>
     <use x="362.273438" xlink:href="#DejaVuSans-65"/>
     <use x="423.796875" xlink:href="#DejaVuSans-20"/>
     <use x="455.583984" xlink:href="#DejaVuSans-30"/>
     <use x="519.207031" xlink:href="#DejaVuSans-2e"/>
     <use x="550.994141" xlink:href="#DejaVuSans-31"/>
     <use x="614.617188" xlink:href="#DejaVuSans-33"/>
     <use x="678.240234" xlink:href="#DejaVuSans-32"/>
     <use x="741.863281" xlink:href="#DejaVuSans-37"/>
     <use x="805.486328" xlink:href="#DejaVuSans-2c"/>
     <use x="837.273438" xlink:href="#DejaVuSans-20"/>
     <use x="869.060547" xlink:href="#DejaVuSans-61"/>
     <use x="930.339844" xlink:href="#DejaVuSans-76"/>
     <use x="989.519531" xlink:href="#DejaVuSans-67"/>
     <use x="1052.996094" xlink:href="#DejaVuSans-20"/>
     <use x="1084.783203" xlink:href="#DejaVuSans-50"/>
     <use x="1145.085938" xlink:href="#DejaVuSans-52"/>
     <use x="1214.568359" xlink:href="#DejaVuSans-20"/>
     <use x="1246.355469" xlink:href="#DejaVuSans-30"/>
     <use x="1309.978516" xlink:href="#DejaVuSans-2e"/>
     <use x="1341.765625" xlink:href="#DejaVuSans-32"/>
     <use x="1405.388672" xlink:href="#DejaVuSans-33"/>
     <use x="1469.011719" xlink:href="#DejaVuSans-36"/>
     <use x="1532.634766" xlink:href="#DejaVuSans-30"/>
    </g>
   </g>
   <g id="text_8">
    <!-- TPR 0.8108, FPR 0.0193 -->
    <defs>
     <path d="M -0.296875 72.90625 
L 61.375 72.90625 
L 61.375 64.59375 
L 35.5 64.59375 
L 35.5 0 
L 25.59375 0 
L 25.59375 64.59375 
L -0.296875 64.59375 
z
" id="DejaVuSans-54"/>
     <path d="M 31.78125 34.625 
Q 24.75 34.625 20.71875 30.859375 
Q 16.703125 27.09375 16.703125 20.515625 
Q 16.703125 13.921875 20.71875 10.15625 
Q 24.75 6.390625 31.78125 6.390625 
Q 38.8125 6.390625 42.859375 10.171875 
Q 46.921875 13.96875 46.921875 20.515625 
Q 46.921875 27.09375 42.890625 30.859375 
Q 38.875 34.625 31.78125 34.625 
z
M 21.921875 38.8125 
Q 15.578125 40.375 12.03125 44.71875 
Q 8.5 49.078125 8.5 55.328125 
Q 8.5 64.0625 14.71875 69.140625 
Q 20.953125 74.21875 31.78125 74.21875 
Q 42.671875 74.21875 48.875 69.140625 
Q 55.078125 64.0625 55.078125 55.328125 
Q 55.078125 49.078125 51.53125 44.71875 
Q 48 40.375 41.703125 38.8125 
Q 48.828125 37.15625 52.796875 32.3125 
Q 56.78125 27.484375 56.78125 20.515625 
Q 56.78125 9.90625 50.3125 4.234375 
Q 43.84375 -1.421875 31.78125 -1.421875 
Q 19.734375 -1.421875 13.25 4.234375 
Q 6.78125 9.90625 6.78125 20.515625 
Q 6.78125 27.484375 10.78125 32.3125 
Q 14.796875 37.15625 21.921875 38.8125 
z
M 18.3125 54.390625 
Q 18.3125 48.734375 21.84375 45.5625 
Q 25.390625 42.390625 31.78125 42.390625 
Q 38.140625 42.390625 41.71875 45.5625 
Q 45.3125 48.734375 45.3125 54.390625 
Q 45.3125 60.0625 41.71875 63.234375 
Q 38.140625 66.40625 31.78125 66.40625 
Q 25.390625 66.40625 21.84375 63.234375 
Q 18.3125 60.0625 18.3125 54.390625 
z
" id="DejaVuSans-38"/>
     <path d="M 10.984375 1.515625 
L 10.984375 10.5 
Q 14.703125 8.734375 18.5 7.8125 
Q 22.3125 6.890625 25.984375 6.890625 
Q 35.75 6.890625 40.890625 13.453125 
Q 46.046875 20.015625 46.78125 33.40625 
Q 43.953125 29.203125 39.59375 26.953125 
Q 35.25 24.703125 29.984375 24.703125 
Q 19.046875 24.703125 12.671875 31.3125 
Q 6.296875 37.9375 6.296875 49.421875 
Q 6.296875 60.640625 12.9375 67.421875 
Q 19.578125 74.21875 30.609375 74.21875 
Q 43.265625 74.21875 49.921875 64.515625 
Q 56.59375 54.828125 56.59375 36.375 
Q 56.59375 19.140625 48.40625 8.859375 
Q 40.234375 -1.421875 26.421875 -1.421875 
Q 22.703125 -1.421875 18.890625 -0.6875 
Q 15.09375 0.046875 10.984375 1.515625 
z
M 30.609375 32.421875 
Q 37.25 32.421875 41.125 36.953125 
Q 45.015625 41.5 45.015625 49.421875 
Q 45.015625 57.28125 41.125 61.84375 
Q 37.25 66.40625 30.609375 66.40625 
Q 23.96875 66.40625 20.09375 61.84375 
Q 16.21875 57.28125 16.21875 49.421875 
Q 16.21875 41.5 20.09375 36.953125 
Q 23.96875 32.421875 30.609375 32.421875 
z
" id="DejaVuSans-39"/>
    </defs>
    <g transform="translate(294.867336 55.061905)scale(0.1 -0.1)">
     <use xlink:href="#DejaVuSans-54"/>
     <use x="61.083984" xlink:href="#DejaVuSans-50"/>
     <use x="121.386719" xlink:href="#DejaVuSans-52"/>
     <use x="190.869141" xlink:href="#DejaVuSans-20"/>
     <use x="222.65625" xlink:href="#DejaVuSans-30"/>
     <use x="286.279297" xlink:href="#DejaVuSans-2e"/>
     <use x="318.066406" xlink:href="#DejaVuSans-38"/>
     <use x="381.689453" xlink:href="#DejaVuSans-31"/>
     <use x="445.3125" xlink:href="#DejaVuSans-30"/>
     <use x="508.935547" xlink:href="#DejaVuSans-38"/>
     <use x="572.558594" xlink:href="#DejaVuSans-2c"/>
     <use x="604.345703" xlink:href="#DejaVuSans-20"/>
     <use x="636.132812" xlink:href="#DejaVuSans-46"/>
     <use x="693.652344" xlink:href="#DejaVuSans-50"/>
     <use x="753.955078" xlink:href="#DejaVuSans-52"/>
     <use x="823.4375" xlink:href="#DejaVuSans-20"/>
     <use x="855.224609" xlink:href="#DejaVuSans-30"/>
     <use x="918.847656" xlink:href="#DejaVuSans-2e"/>
     <use x="950.634766" xlink:href="#DejaVuSans-30"/>
     <use x="1014.257812" xlink:href="#DejaVuSans-31"/>
     <use x="1077.880859" xlink:href="#DejaVuSans-39"/>
     <use x="1141.503906" xlink:href="#DejaVuSans-33"/>
    </g>
   </g>
   <g id="text_9">
    <!-- score threshold 0.540 -->
    <defs>
     <path d="M 54.890625 33.015625 
L 54.890625 0 
L 45.90625 0 
L 45.90625 32.71875 
Q 45.90625 40.484375 42.875 44.328125 
Q 39.84375 48.1875 33.796875 48.1875 
Q 26.515625 48.1875 22.3125 43.546875 
Q 18.109375 38.921875 18.109375 30.90625 
L 18.109375 0 
L 9.078125 0 
L 9.078125 75.984375 
L 18.109375 75.984375 
L 18.109375 46.1875 
Q 21.34375 51.125 25.703125 53.5625 
Q 30.078125 56 35.796875 56 
Q 45.21875 56 50.046875 50.171875 
Q 54.890625 44.34375 54.890625 33.015625 
z
" id="DejaVuSans-68"/>
     <path d="M 45.40625 46.390625 
L 45.40625 75.984375 
L 54.390625 75.984375 
L 54.390625 0 
L 45.40625 0 
L 45.40625 8.203125 
Q 42.578125 3.328125 38.25 0.953125 
Q 33.9375 -1.421875 27.875 -1.421875 
Q 17.96875 -1.421875 11.734375 6.484375 
Q 5.515625 14.40625 5.515625 27.296875 
Q 5.515625 40.1875 11.734375 48.09375 
Q 17.96875 56 27.875 56 
Q 33.9375 56 38.25 53.625 
Q 42.578125 51.265625 45.40625 46.390625 
z
M 14.796875 27.296875 
Q 14.796875 17.390625 18.875 11.75 
Q 22.953125 6.109375 30.078125 6.109375 
Q 37.203125 6.109375 41.296875 11.75 
Q 45.40625 17.390625 45.40625 27.296875 
Q 45.40625 37.203125 41.296875 42.84375 
Q 37.203125 48.484375 30.078125 48.484375 
Q 22.953125 48.484375 18.875 42.84375 
Q 14.796875 37.203125 14.796875 27.296875 
z
" id="DejaVuSans-64"/>
     <path d="M 10.796875 72.90625 
L 49.515625 72.90625 
L 49.515625 64.59375 
L 19.828125 64.59375 
L 19.828125 46.734375 
Q 21.96875 47.46875 24.109375 47.828125 
Q 26.265625 48.1875 28.421875 48.1875 
Q 40.625 48.1875 47.75 41.5 
Q 54.890625 34.8125 54.890625 23.390625 
Q 54.890625 11.625 47.5625 5.09375 
Q 40.234375 -1.421875 26.90625 -1.421875 
Q 22.3125 -1.421875 17.546875 -0.640625 
Q 12.796875 0.140625 7.71875 1.703125 
L 7.71875 11.625 
Q 12.109375 9.234375 16.796875 8.0625 
Q 21.484375 6.890625 26.703125 6.890625 
Q 35.15625 6.890625 40.078125 11.328125 
Q 45.015625 15.765625 45.015625 23.390625 
Q 45.015625 31 40.078125 35.4375 
Q 35.15625 39.890625 26.703125 39.890625 
Q 22.75 39.890625 18.8125 39.015625 
Q 14.890625 38.140625 10.796875 36.28125 
z
" id="DejaVuSans-35"/>
    </defs>
    <g transform="translate(246.47468 113.069048)scale(0.1 -0.1)">
     <use xlink:href="#DejaVuSans-73"/>
     <use x="52.099609" xlink:href="#DejaVuSans-63"/>
     <use x="107.080078" xlink:href="#DejaVuSans-6f"/>
     <use x="168.261719" xlink:href="#DejaVuSans-72"/>
     <use x="209.34375" xlink:href="#DejaVuSans-65"/>
     <use x="270.867188" xlink:href="#DejaVuSans-20"/>
     <use x="302.654297" xlink:href="#DejaVuSans-74"/>
     <use x="341.863281" xlink:href="#DejaVuSans-68"/>
     <use x="405.242188" xlink:href="#DejaVuSans-72"/>
     <use x="446.324219" xlink:href="#DejaVuSans-65"/>
     <use x="507.847656" xlink:href="#DejaVuSans-73"/>
     <use x="559.947266" xlink:href="#DejaVuSans-68"/>
     <use x="623.326172" xlink:href="#DejaVuSans-6f"/>
     <use x="684.507812" xlink:href="#DejaVuSans-6c"/>
     <use x="712.291016" xlink:href="#DejaVuSans-64"/>
     <use x="775.767578" xlink:href="#DejaVuSans-20"/>
     <use x="807.554688" xlink:href="#DejaVuSans-30"/>
     <use x="871.177734" xlink:href="#DejaVuSans-2e"/>
     <use x="902.964844" xlink:href="#DejaVuSans-35"/>
     <use x="966.587891" xlink:href="#DejaVuSans-34"/>
     <use x="1030.210938" xlink:href="#DejaVuSans-30"/>
    </g>
   </g>
   <g id="text_10">
    <!-- True anomaly rate 0.0019 -->
    <defs>
     <path d="M 32.171875 -5.078125 
Q 28.375 -14.84375 24.75 -17.8125 
Q 21.140625 -20.796875 15.09375 -20.796875 
L 7.90625 -20.796875 
L 7.90625 -13.28125 
L 13.1875 -13.28125 
Q 16.890625 -13.28125 18.9375 -11.515625 
Q 21 -9.765625 23.484375 -3.21875 
L 25.09375 0.875 
L 2.984375 54.6875 
L 12.5 54.6875 
L 29.59375 11.921875 
L 46.6875 54.6875 
L 56.203125 54.6875 
z
" id="DejaVuSans-79"/>
    </defs>
    <g transform="translate(246.47468 125.959524)scale(0.1 -0.1)">
     <use xlink:href="#DejaVuSans-54"/>
     <use x="60.865234" xlink:href="#DejaVuSans-72"/>
     <use x="101.978516" xlink:href="#DejaVuSans-75"/>
     <use x="165.357422" xlink:href="#DejaVuSans-65"/>
     <use x="226.880859" xlink:href="#DejaVuSans-20"/>
     <use x="258.667969" xlink:href="#DejaVuSans-61"/>
     <use x="319.947266" xlink:href="#DejaVuSans-6e"/>
     <use x="383.326172" xlink:href="#DejaVuSans-6f"/>
     <use x="444.507812" xlink:href="#DejaVuSans-6d"/>
     <use x="541.919922" xlink:href="#DejaVuSans-61"/>
     <use x="603.199219" xlink:href="#DejaVuSans-6c"/>
     <use x="630.982422" xlink:href="#DejaVuSans-79"/>
     <use x="690.162109" xlink:href="#DejaVuSans-20"/>
     <use x="721.949219" xlink:href="#DejaVuSans-72"/>
     <use x="763.0625" xlink:href="#DejaVuSans-61"/>
     <use x="824.341797" xlink:href="#DejaVuSans-74"/>
     <use x="863.550781" xlink:href="#DejaVuSans-65"/>
     <use x="925.074219" xlink:href="#DejaVuSans-20"/>
     <use x="956.861328" xlink:href="#DejaVuSans-30"/>
     <use x="1020.484375" xlink:href="#DejaVuSans-2e"/>
     <use x="1052.271484" xlink:href="#DejaVuSans-30"/>
     <use x="1115.894531" xlink:href="#DejaVuSans-30"/>
     <use x="1179.517578" xlink:href="#DejaVuSans-31"/>
     <use x="1243.140625" xlink:href="#DejaVuSans-39"/>
    </g>
   </g>
  </g>
  <g id="axes_2">
   <g id="patch_22">
    <path d="M 46.128125 293.82 
L 436.438125 293.82 
L 436.438125 158.47 
L 46.128125 158.47 
z
" style="fill:#ffffff;"/>
   </g>
   <g id="patch_23">
    <path clip-path="url(#p91d5880b7c)" d="M 109.880449 293.82 
L 130.106545 293.82 
L 130.106545 268.039048 
L 109.880449 268.039048 
z
" style="fill:#fee090;"/>
   </g>
   <g id="patch_24">
    <path clip-path="url(#p91d5880b7c)" d="M 130.106545 293.82 
L 150.332642 293.82 
L 150.332642 242.258095 
L 130.106545 242.258095 
z
" style="fill:#fee090;"/>
   </g>
   <g id="patch_25">
    <path clip-path="url(#p91d5880b7c)" d="M 150.332642 293.82 
L 170.558738 293.82 
L 170.558738 293.82 
L 150.332642 293.82 
z
" style="fill:#fee090;"/>
   </g>
   <g id="patch_26">
    <path clip-path="url(#p91d5880b7c)" d="M 170.558738 293.82 
L 190.784834 293.82 
L 190.784834 268.039048 
L 170.558738 268.039048 
z
" style="fill:#fee090;"/>
   </g>
   <g id="patch_27">
    <path clip-path="url(#p91d5880b7c)" d="M 190.784834 293.82 
L 211.01093 293.82 
L 211.01093 268.039048 
L 190.784834 268.039048 
z
" style="fill:#fee090;"/>
   </g>
   <g id="patch_28">
    <path clip-path="url(#p91d5880b7c)" d="M 211.01093 293.82 
L 231.237026 293.82 
L 231.237026 268.039048 
L 211.01093 268.039048 
z
" style="fill:#fee090;"/>
   </g>
   <g id="patch_29">
    <path clip-path="url(#p91d5880b7c)" d="M 231.237026 293.82 
L 251.463123 293.82 
L 251.463123 216.477143 
L 231.237026 216.477143 
z
" style="fill:#fee090;"/>
   </g>
   <g id="patch_30">
    <path clip-path="url(#p91d5880b7c)" d="M 251.463123 293.82 
L 271.689219 293.82 
L 271.689219 268.039048 
L 251.463123 268.039048 
z
" style="fill:#fee090;"/>
   </g>
   <g id="patch_31">
    <path clip-path="url(#p91d5880b7c)" d="M 271.689219 293.82 
L 291.915315 293.82 
L 291.915315 216.477143 
L 271.689219 216.477143 
z
" style="fill:#fee090;"/>
   </g>
   <g id="patch_32">
    <path clip-path="url(#p91d5880b7c)" d="M 291.915315 293.82 
L 312.141411 293.82 
L 312.141411 164.915238 
L 291.915315 164.915238 
z
" style="fill:#fee090;"/>
   </g>
   <g id="patch_33">
    <path clip-path="url(#p91d5880b7c)" d="M 312.141411 293.82 
L 332.367507 293.82 
L 332.367507 216.477143 
L 312.141411 216.477143 
z
" style="fill:#fee090;"/>
   </g>
   <g id="patch_34">
    <path clip-path="url(#p91d5880b7c)" d="M 332.367507 293.82 
L 352.593604 293.82 
L 352.593604 242.258095 
L 332.367507 242.258095 
z
" style="fill:#fee090;"/>
   </g>
   <g id="patch_35">
    <path clip-path="url(#p91d5880b7c)" d="M 352.593604 293.82 
L 372.8197 293.82 
L 372.8197 164.915238 
L 352.593604 164.915238 
z
" style="fill:#fee090;"/>
   </g>
   <g id="patch_36">
    <path clip-path="url(#p91d5880b7c)" d="M 372.8197 293.82 
L 393.045796 293.82 
L 393.045796 190.69619 
L 372.8197 190.69619 
z
" style="fill:#fee090;"/>
   </g>
   <g id="patch_37">
    <path clip-path="url(#p91d5880b7c)" d="M 393.045796 293.82 
L 413.271892 293.82 
L 413.271892 164.915238 
L 393.045796 164.915238 
z
" style="fill:#fee090;"/>
   </g>
   <g id="matplotlib.axis_3">
    <g id="xtick_9">
     <g id="line2d_14">
      <g>
       <use style="stroke:#000000;stroke-width:0.8;" x="63.25208" xlink:href="#m5466b82775" y="293.82"/>
      </g>
     </g>
     <g id="text_11">
      <!-- 0.35 -->
      <g transform="translate(52.119267 308.418437)scale(0.1 -0.1)">
       <use xlink:href="#DejaVuSans-30"/>
       <use x="63.623047" xlink:href="#DejaVuSans-2e"/>
       <use x="95.410156" xlink:href="#DejaVuSans-33"/>
       <use x="159.033203" xlink:href="#DejaVuSans-35"/>
      </g>
     </g>
    </g>
    <g id="xtick_10">
     <g id="line2d_15">
      <g>
       <use style="stroke:#000000;stroke-width:0.8;" x="110.232234" xlink:href="#m5466b82775" y="293.82"/>
      </g>
     </g>
     <g id="text_12">
      <!-- 0.40 -->
      <g transform="translate(99.099421 308.418437)scale(0.1 -0.1)">
       <use xlink:href="#DejaVuSans-30"/>
       <use x="63.623047" xlink:href="#DejaVuSans-2e"/>
       <use x="95.410156" xlink:href="#DejaVuSans-34"/>
       <use x="159.033203" xlink:href="#DejaVuSans-30"/>
      </g>
     </g>
    </g>
    <g id="xtick_11">
     <g id="line2d_16">
      <g>
       <use style="stroke:#000000;stroke-width:0.8;" x="157.212388" xlink:href="#m5466b82775" y="293.82"/>
      </g>
     </g>
     <g id="text_13">
      <!-- 0.45 -->
      <g transform="translate(146.079575 308.418437)scale(0.1 -0.1)">
       <use xlink:href="#DejaVuSans-30"/>
       <use x="63.623047" xlink:href="#DejaVuSans-2e"/>
       <use x="95.410156" xlink:href="#DejaVuSans-34"/>
       <use x="159.033203" xlink:href="#DejaVuSans-35"/>
      </g>
     </g>
    </g>
    <g id="xtick_12">
     <g id="line2d_17">
      <g>
       <use style="stroke:#000000;stroke-width:0.8;" x="204.192542" xlink:href="#m5466b82775" y="293.82"/>
      </g>
     </g>
     <g id="text_14">
      <!-- 0.50 -->
      <g transform="translate(193.059729 308.418437)scale(0.1 -0.1)">
       <use xlink:href="#DejaVuSans-30"/>
       <use x="63.623047" xlink:href="#DejaVuSans-2e"/>
       <use x="95.410156" xlink:href="#DejaVuSans-35"/>
       <use x="159.033203" xlink:href="#DejaVuSans-30"/>
      </g>
     </g>
    </g>
    <g id="xtick_13">
     <g id="line2d_18">
      <g>
       <use style="stroke:#000000;stroke-width:0.8;" x="251.172696" xlink:href="#m5466b82775" y="293.82"/>
      </g>
     </g>
     <g id="text_15">
      <!-- 0.55 -->
      <g transform="translate(240.039883 308.418437)scale(0.1 -0.1)">
       <use xlink:href="#DejaVuSans-30"/>
       <use x="63.623047" xlink:href="#DejaVuSans-2e"/>
       <use x="95.410156" xlink:href="#DejaVuSans-35"/>
       <use x="159.033203" xlink:href="#DejaVuSans-35"/>
      </g>
     </g>
    </g>
    <g id="xtick_14">
     <g id="line2d_19">
      <g>
       <use style="stroke:#000000;stroke-width:0.8;" x="298.15285" xlink:href="#m5466b82775" y="293.82"/>
      </g>
     </g>
     <g id="text_16">
      <!-- 0.60 -->
      <g transform="translate(287.020037 308.418437)scale(0.1 -0.1)">
       <use xlink:href="#DejaVuSans-30"/>
       <use x="63.623047" xlink:href="#DejaVuSans-2e"/>
       <use x="95.410156" xlink:href="#DejaVuSans-36"/>
       <use x="159.033203" xlink:href="#DejaVuSans-30"/>
      </g>
     </g>
    </g>
    <g id="xtick_15">
     <g id="line2d_20">
      <g>
       <use style="stroke:#000000;stroke-width:0.8;" x="345.133004" xlink:href="#m5466b82775" y="293.82"/>
      </g>
     </g>
     <g id="text_17">
      <!-- 0.65 -->
      <g transform="translate(334.000191 308.418437)scale(0.1 -0.1)">
       <use xlink:href="#DejaVuSans-30"/>
       <use x="63.623047" xlink:href="#DejaVuSans-2e"/>
       <use x="95.410156" xlink:href="#DejaVuSans-36"/>
       <use x="159.033203" xlink:href="#DejaVuSans-35"/>
      </g>
     </g>
    </g>
    <g id="xtick_16">
     <g id="line2d_21">
      <g>
       <use style="stroke:#000000;stroke-width:0.8;" x="392.113158" xlink:href="#m5466b82775" y="293.82"/>
      </g>
     </g>
     <g id="text_18">
      <!-- 0.70 -->
      <g transform="translate(380.980345 308.418437)scale(0.1 -0.1)">
       <use xlink:href="#DejaVuSans-30"/>
       <use x="63.623047" xlink:href="#DejaVuSans-2e"/>
       <use x="95.410156" xlink:href="#DejaVuSans-37"/>
       <use x="159.033203" xlink:href="#DejaVuSans-30"/>
      </g>
     </g>
    </g>
    <g id="text_19">
     <!-- Anomaly score -->
     <defs>
      <path d="M 34.1875 63.1875 
L 20.796875 26.90625 
L 47.609375 26.90625 
z
M 28.609375 72.90625 
L 39.796875 72.90625 
L 67.578125 0 
L 57.328125 0 
L 50.6875 18.703125 
L 17.828125 18.703125 
L 11.1875 0 
L 0.78125 0 
z
" id="DejaVuSans-41"/>
     </defs>
     <g transform="translate(204.219063 322.096562)scale(0.1 -0.1)">
      <use xlink:href="#DejaVuSans-41"/>
      <use x="68.408203" xlink:href="#DejaVuSans-6e"/>
      <use x="131.787109" xlink:href="#DejaVuSans-6f"/>
      <use x="192.96875" xlink:href="#DejaVuSans-6d"/>
      <use x="290.380859" xlink:href="#DejaVuSans-61"/>
      <use x="351.660156" xlink:href="#DejaVuSans-6c"/>
      <use x="379.443359" xlink:href="#DejaVuSans-79"/>
      <use x="438.623047" xlink:href="#DejaVuSans-20"/>
      <use x="470.410156" xlink:href="#DejaVuSans-73"/>
      <use x="522.509766" xlink:href="#DejaVuSans-63"/>
      <use x="577.490234" xlink:href="#DejaVuSans-6f"/>
      <use x="638.671875" xlink:href="#DejaVuSans-72"/>
      <use x="679.753906" xlink:href="#DejaVuSans-65"/>
     </g>
    </g>
   </g>
   <g id="matplotlib.axis_4">
    <g id="ytick_5">
     <g id="line2d_22">
      <g>
       <use style="stroke:#000000;stroke-width:0.8;" x="46.128125" xlink:href="#m7eda8c2fb0" y="293.82"/>
      </g>
     </g>
     <g id="text_20">
      <!-- 0 -->
      <g transform="translate(32.765625 297.619219)scale(0.1 -0.1)">
       <use xlink:href="#DejaVuSans-30"/>
      </g>
     </g>
    </g>
    <g id="ytick_6">
     <g id="line2d_23">
      <g>
       <use style="stroke:#000000;stroke-width:0.8;" x="46.128125" xlink:href="#m7eda8c2fb0" y="268.039048"/>
      </g>
     </g>
     <g id="text_21">
      <!-- 1 -->
      <g transform="translate(32.765625 271.838266)scale(0.1 -0.1)">
       <use xlink:href="#DejaVuSans-31"/>
      </g>
     </g>
    </g>
    <g id="ytick_7">
     <g id="line2d_24">
      <g>
       <use style="stroke:#000000;stroke-width:0.8;" x="46.128125" xlink:href="#m7eda8c2fb0" y="242.258095"/>
      </g>
     </g>
     <g id="text_22">
      <!-- 2 -->
      <g transform="translate(32.765625 246.057314)scale(0.1 -0.1)">
       <use xlink:href="#DejaVuSans-32"/>
      </g>
     </g>
    </g>
    <g id="ytick_8">
     <g id="line2d_25">
      <g>
       <use style="stroke:#000000;stroke-width:0.8;" x="46.128125" xlink:href="#m7eda8c2fb0" y="216.477143"/>
      </g>
     </g>
     <g id="text_23">
      <!-- 3 -->
      <g transform="translate(32.765625 220.276362)scale(0.1 -0.1)">
       <use xlink:href="#DejaVuSans-33"/>
      </g>
     </g>
    </g>
    <g id="ytick_9">
     <g id="line2d_26">
      <g>
       <use style="stroke:#000000;stroke-width:0.8;" x="46.128125" xlink:href="#m7eda8c2fb0" y="190.69619"/>
      </g>
     </g>
     <g id="text_24">
      <!-- 4 -->
      <g transform="translate(32.765625 194.495409)scale(0.1 -0.1)">
       <use xlink:href="#DejaVuSans-34"/>
      </g>
     </g>
    </g>
    <g id="ytick_10">
     <g id="line2d_27">
      <g>
       <use style="stroke:#000000;stroke-width:0.8;" x="46.128125" xlink:href="#m7eda8c2fb0" y="164.915238"/>
      </g>
     </g>
     <g id="text_25">
      <!-- 5 -->
      <g transform="translate(32.765625 168.714457)scale(0.1 -0.1)">
       <use xlink:href="#DejaVuSans-35"/>
      </g>
     </g>
    </g>
    <g id="text_26">
     <!-- Anomalous sample count -->
     <g transform="translate(26.685938 289.412969)rotate(-90)scale(0.1 -0.1)">
      <use xlink:href="#DejaVuSans-41"/>
      <use x="68.408203" xlink:href="#DejaVuSans-6e"/>
      <use x="131.787109" xlink:href="#DejaVuSans-6f"/>
      <use x="192.96875" xlink:href="#DejaVuSans-6d"/>
      <use x="290.380859" xlink:href="#DejaVuSans-61"/>
      <use x="351.660156" xlink:href="#DejaVuSans-6c"/>
      <use x="379.443359" xlink:href="#DejaVuSans-6f"/>
      <use x="440.625" xlink:href="#DejaVuSans-75"/>
      <use x="504.003906" xlink:href="#DejaVuSans-73"/>
      <use x="556.103516" xlink:href="#DejaVuSans-20"/>
      <use x="587.890625" xlink:href="#DejaVuSans-73"/>
      <use x="639.990234" xlink:href="#DejaVuSans-61"/>
      <use x="701.269531" xlink:href="#DejaVuSans-6d"/>
      <use x="798.681641" xlink:href="#DejaVuSans-70"/>
      <use x="862.158203" xlink:href="#DejaVuSans-6c"/>
      <use x="889.941406" xlink:href="#DejaVuSans-65"/>
      <use x="951.464844" xlink:href="#DejaVuSans-20"/>
      <use x="983.251953" xlink:href="#DejaVuSans-63"/>
      <use x="1038.232422" xlink:href="#DejaVuSans-6f"/>
      <use x="1099.414062" xlink:href="#DejaVuSans-75"/>
      <use x="1162.792969" xlink:href="#DejaVuSans-6e"/>
      <use x="1226.171875" xlink:href="#DejaVuSans-74"/>
     </g>
    </g>
   </g>
   <g id="line2d_28">
    <path clip-path="url(#p91d5880b7c)" d="M 241.776665 293.82 
L 241.776665 164.915238 
" style="fill:none;stroke:#808080;stroke-dasharray:5.55,2.4;stroke-dashoffset:0;stroke-width:1.5;"/>
   </g>
   <g id="patch_38">
    <path d="M 46.128125 293.82 
L 46.128125 158.47 
" style="fill:none;stroke:#000000;stroke-linecap:square;stroke-linejoin:miter;stroke-width:0.8;"/>
   </g>
   <g id="patch_39">
    <path d="M 436.438125 293.82 
L 436.438125 158.47 
" style="fill:none;stroke:#000000;stroke-linecap:square;stroke-linejoin:miter;stroke-width:0.8;"/>
   </g>
   <g id="patch_40">
    <path d="M 46.128125 293.82 
L 436.438125 293.82 
" style="fill:none;stroke:#000000;stroke-linecap:square;stroke-linejoin:miter;stroke-width:0.8;"/>
   </g>
   <g id="patch_41">
    <path d="M 46.128125 158.47 
L 436.438125 158.47 
" style="fill:none;stroke:#000000;stroke-linecap:square;stroke-linejoin:miter;stroke-width:0.8;"/>
   </g>
  </g>
 </g>
 <defs>
  <clipPath id="p18b142c6d1">
   <rect height="135.35" width="390.31" x="46.128125" y="3.5"/>
  </clipPath>
  <clipPath id="p91d5880b7c">
   <rect height="135.35" width="390.31" x="46.128125" y="158.47"/>
  </clipPath>
 </defs>
</svg>
